<?xml version="1.0" ?><svg data-name="Layer 1" id="Layer_1" viewBox="0 0 128 128" xmlns="http://www.w3.org/2000/svg"><title/><path d="M64,.87012A63.12988,63.12988,0,1,0,127.12988,64,63.20185,63.20185,0,0,0,64,.87012Zm0,121.35938A58.22949,58.22949,0,1,1,122.22949,64,58.296,58.296,0,0,1,64,122.22949Z"/><path d="M94.80176,30.748h-.001a2.43009,2.43009,0,0,0-1.73145.71777L31.46582,93.06836a2.45036,2.45036,0,0,0,3.46484,3.46582L96.53418,34.93164A2.45068,2.45068,0,0,0,94.80176,30.748Z"/><path d="M92.18555,79.20313H71.12109a2.4502,2.4502,0,0,0,0,4.90039H92.18555a2.4502,2.4502,0,0,0,0-4.90039Z"/><path d="M35.24316,50.17676H45.27539V60.209a2.4502,2.4502,0,0,0,4.90039,0V50.17676H60.208a2.45068,2.45068,0,1,0,0-4.90137H50.17578V35.24316a2.4502,2.4502,0,0,0-4.90039,0V45.27539H35.24316a2.45068,2.45068,0,0,0,0,4.90137Z"/></svg>