<?xml version="1.0" ?><svg viewBox="0 0 64 64" xmlns="http://www.w3.org/2000/svg"><g id="cart"><path d="M22,40H11.11A2.07,2.07,0,0,1,9,38.34,2,2,0,0,1,11,36H21.36a2,2,0,0,0,2-1.61L25,25H8L4,22" style="fill:none;stroke:#0a1c28;stroke-linecap:round;stroke-linejoin:round;stroke-width:2px"/><circle cx="4" cy="22" r="2" style="fill:#0a1c28"/><circle cx="11" cy="42" r="2" style="fill:#0a1c28"/><circle cx="20" cy="42" r="2" style="fill:#0a1c28"/><path d="M58,40H47.11A2.07,2.07,0,0,1,45,38.34,2,2,0,0,1,47,36H57.36a2,2,0,0,0,2-1.61L61,25H44l-4-3" style="fill:none;stroke:#0a1c28;stroke-linecap:round;stroke-linejoin:round;stroke-width:2px"/><circle cx="40" cy="22" r="2" style="fill:#0a1c28"/><circle cx="47" cy="42" r="2" style="fill:#0a1c28"/><circle cx="56" cy="42" r="2" style="fill:#0a1c28"/><path d="M27,31h2" style="fill:none;stroke:#0a1c28;stroke-linejoin:round;stroke-width:2px"/><line style="fill:none;stroke:#0a1c28;stroke-linejoin:round;stroke-width:2px" x1="31" x2="33" y1="31" y2="31"/><line style="fill:none;stroke:#0a1c28;stroke-linejoin:round;stroke-width:2px" x1="35" x2="37" y1="31" y2="31"/><line style="fill:none;stroke:#0a1c28;stroke-linejoin:round;stroke-width:2px" x1="39" x2="41" y1="31" y2="31"/><path d="M43,31h2" style="fill:none;stroke:#0a1c28;stroke-linejoin:round;stroke-width:2px"/></g></svg>